Coordinates
version=1
nRows=24
nColumns=24
inDegrees=yes

Units are S.I. units (second, meters, Newtons, ...)
Angles are in degrees.

endheader
time	pelvis_tilt	pelvis_list	pelvis_rotation	pelvis_tx	pelvis_ty	pelvis_tz	hip_flexion_r	hip_adduction_r	hip_rotation_r	knee_angle_r	ankle_angle_r	subtalar_angle_r	mtp_angle_r	hip_flexion_l	hip_adduction_l	hip_rotation_l	knee_angle_l	ankle_angle_l	subtalar_angle_l	mtp_angle_l	lumbar_extension	lumbar_bending	lumbar_rotation
      3.04000000	     76.91116526	     -1.67669225	     -2.03425454	      0.55433716	      0.97465982	     -0.30134706	     -7.47221189	    -17.95614047	    -10.08051613	    -67.86349042	    -27.92223260	      0.00000000	      0.00000000	     -9.06334019	     -4.89608281	      2.67951379	    -51.59861702	    -37.94485406	      0.00000000	      0.00000000	      0.00000000	      0.00000000	      0.00000000
      3.05000000	     77.11561696	     -1.68733035	     -2.00652869	      0.55430617	      0.97485905	     -0.30136695	     -7.75245238	    -17.88876717	    -10.30321847	    -67.48092050	    -27.84672861	      0.00000000	      0.00000000	     -9.37330777	     -4.89576398	      2.33352418	    -51.90067554	    -38.21658748	      0.00000000	      0.00000000	      0.00000000	      0.00000000	      0.00000000
      3.06000000	     77.27632389	     -1.70107277	     -1.98895180	      0.55428264	      0.97504868	     -0.30137986	     -7.96222435	    -17.80751155	    -10.49507587	    -67.13297480	    -27.85371671	      0.00000000	      0.00000000	     -9.62644606	     -4.89365837	      2.01693237	    -52.21483448	    -38.50646852	      0.00000000	      0.00000000	      0.00000000	      0.00000000	      0.00000000
      3.07000000	     77.39920011	     -1.71951419	     -1.98030878	      0.55427029	      0.97523420	     -0.30137781	     -8.10830296	    -17.71645345	    -10.66768652	    -66.82023174	    -27.91397833	      0.00000000	      0.00000000	     -9.82896075	     -4.89028594	      1.73240262	    -52.53509644	    -38.80300455	      0.00000000	      0.00000000	      0.00000000	      0.00000000	      0.00000000
      3.08000000	     77.49331116	     -1.74392518	     -1.97653134	      0.55427073	      0.97540188	     -0.30136895	     -8.20490574	    -17.62139045	    -10.83155642	    -66.54020882	    -27.99700828	      0.00000000	      0.00000000	     -9.99065072	     -4.88856017	      1.48110422	    -52.85456806	    -39.09724525	      0.00000000	      0.00000000	      0.00000000	      0.00000000	      0.00000000
      3.09000000	     77.56857517	     -1.77473652	     -1.97361721	      0.55427480	      0.97555043	     -0.30134818	     -8.27103136	    -17.52639292	    -10.99523621	    -66.28955650	    -28.07800682	      0.00000000	      0.00000000	    -10.12229083	     -4.89160317	      1.26308151	    -53.16669180	    -39.38393420	      0.00000000	      0.00000000	      0.00000000	      0.00000000	      0.00000000
      3.10000000	     77.63418544	     -1.81081994	     -1.96984424	      0.55427088	      0.97568889	     -0.30131286	     -8.32570887	    -17.43185000	    -11.16539707	    -66.06521622	    -28.14140010	      0.00000000	      0.00000000	    -10.23374327	     -4.90158932	      1.07746530	    -53.46575950	    -39.66137401	      0.00000000	      0.00000000	      0.00000000	      0.00000000	      0.00000000
      3.11000000	     77.69737118	     -1.85005086	     -1.96516576	      0.55425262	      0.97580751	     -0.30127800	     -8.38259214	    -17.33581529	    -11.34611971	    -65.86439788	    -28.18088584	      0.00000000	      0.00000000	    -10.33337283	     -4.91999259	      0.92256631	    -53.74671460	    -39.93018223	      0.00000000	      0.00000000	      0.00000000	      0.00000000	      0.00000000
      3.12000000	     77.76291920	     -1.89132977	     -1.95896143	      0.55421965	      0.97589255	     -0.30124858	     -8.44649093	    -17.23749151	    -11.53725308	    -65.68454496	    -28.19731163	      0.00000000	      0.00000000	    -10.42732078	     -4.94825974	      0.79612453	    -54.00436341	    -40.19139880	      0.00000000	      0.00000000	      0.00000000	      0.00000000	      0.00000000
      3.13000000	     77.83271003	     -1.93525468	     -1.94976431	      0.55417795	      0.97595469	     -0.30120392	     -8.51398309	    -17.13870624	    -11.73381199	    -65.52443698	    -28.19590180	      0.00000000	      0.00000000	    -10.51809383	     -4.98767882	      0.69571830	    -54.23258611	    -40.44465664	      0.00000000	      0.00000000	      0.00000000	      0.00000000	      0.00000000
      3.14000000	     77.90456628	     -1.98229362	     -1.93769235	      0.55412942	      0.97601493	     -0.30113179	     -8.57719340	    -17.04197396	    -11.92752341	    -65.38576900	    -28.18346892	      0.00000000	      0.00000000	    -10.60382180	     -5.03830507	      0.61913345	    -54.42445456	    -40.68712719	      0.00000000	      0.00000000	      0.00000000	      0.00000000	      0.00000000
      3.15000000	     77.97223713	     -2.03118179	     -1.92606698	      0.55406805	      0.97607096	     -0.30104924	     -8.62699517	    -16.94841185	    -12.10931289	    -65.27311212	    -28.16587190	      0.00000000	      0.00000000	    -10.67917230	     -5.09783321	      0.56446925	    -54.57337106	    -40.91354607	      0.00000000	      0.00000000	      0.00000000	      0.00000000	      0.00000000
      3.16000000	     78.02770739	     -2.07954857	     -1.91982190	      0.55399377	      0.97610119	     -0.30097464	     -8.65361966	    -16.85845720	    -12.27095179	    -65.19174586	    -28.14643722	      0.00000000	      0.00000000	    -10.73755025	     -5.16172839	      0.53012879	    -54.67446681	    -41.11709780	      0.00000000	      0.00000000	      0.00000000	      0.00000000	      0.00000000
      3.17000000	     78.06374343	     -2.12505888	     -1.92276744	      0.55391806	      0.97609690	     -0.30091561	     -8.64653902	    -16.77390185	    -12.40562212	    -65.14539540	    -28.12606565	      0.00000000	      0.00000000	    -10.77344358	     -5.22509216	      0.51498256	    -54.72540241	    -41.29063860	      0.00000000	      0.00000000	      0.00000000	      0.00000000	      0.00000000
      3.18000000	     78.07519641	     -2.16574247	     -1.93605069	      0.55385953	      0.97607670	     -0.30087753	     -8.59555828	    -16.69828011	    -12.50819149	    -65.13558898	    -28.10476318	      0.00000000	      0.00000000	    -10.78330384	     -5.28462854	      0.51834229	    -54.72597600	    -41.42779047	      0.00000000	      0.00000000	      0.00000000	      0.00000000	      0.00000000
      3.19000000	     78.05872180	     -2.20008655	     -1.95838746	      0.55383083	      0.97606810	     -0.30085745	     -8.49342723	    -16.63501054	    -12.57546082	    -65.16278600	    -28.08335849	      0.00000000	      0.00000000	    -10.76438304	     -5.33907116	      0.53943006	    -54.67667716	    -41.52372571	      0.00000000	      0.00000000	      0.00000000	      0.00000000	      0.00000000
      3.20000000	     78.01148875	     -2.22706699	     -1.98770753	      0.55382620	      0.97607157	     -0.30084372	     -8.33790278	    -16.58476509	    -12.60632168	    -65.22775706	    -28.06421331	      0.00000000	      0.00000000	    -10.71324987	     -5.38835854	      0.57678709	    -54.57735625	    -41.57573017	      0.00000000	      0.00000000	      0.00000000	      0.00000000	      0.00000000
      3.21000000	     77.93110538	     -2.24619283	     -2.02248118	      0.55383142	      0.97606022	     -0.30082430	     -8.12991394	    -16.54439992	    -12.60142548	    -65.33122380	    -28.05059685	      0.00000000	      0.00000000	    -10.62599286	     -5.43296135	      0.62831250	    -54.42722017	    -41.58367271	      0.00000000	      0.00000000	      0.00000000	      0.00000000	      0.00000000
      3.22000000	     77.81654808	     -2.25781402	     -2.06178199	      0.55383967	      0.97601684	     -0.30079235	     -7.86899048	    -16.50842387	    -12.56181668	    -65.47243534	    -28.04526959	      0.00000000	      0.00000000	    -10.49991360	     -5.47419204	      0.69208140	    -54.22618911	    -41.55037193	      0.00000000	      0.00000000	      0.00000000	      0.00000000	      0.00000000
      3.23000000	     77.66805976	     -2.26344337	     -2.10506846	      0.55386203	      0.97595095	     -0.30074899	     -7.55071384	    -16.47143414	    -12.48689049	    -65.64906513	    -28.04911823	      0.00000000	      0.00000000	    -10.33447064	     -5.51487239	      0.76730676	    -53.97639375	    -41.48159731	      0.00000000	      0.00000000	      0.00000000	      0.00000000	      0.00000000
      3.24000000	     77.48532757	     -2.26559720	     -2.15281984	      0.55392045	      0.97587946	     -0.30070605	     -7.16883460	    -16.42928100	    -12.37290979	    -65.85929287	    -28.06038602	      0.00000000	      0.00000000	    -10.12992419	     -5.55907376	      0.85462851	    -53.68273563	    -41.38535395	      0.00000000	      0.00000000	      0.00000000	      0.00000000	      0.00000000
      3.25000000	     77.26555967	     -2.26728896	     -2.20748046	      0.55401444	      0.97579304	     -0.30067994	     -6.71946229	    -16.37827694	    -12.21351396	    -66.10413209	    -28.07473453	      0.00000000	      0.00000000	     -9.88507360	     -5.61013715	      0.95529620	    -53.35268734	    -41.27046032	      0.00000000	      0.00000000	      0.00000000	      0.00000000	      0.00000000
      3.26000000	     77.00513426	     -2.27152945	     -2.27285591	      0.55411650	      0.97566129	     -0.30066774	     -6.20161238	    -16.31409086	    -12.00244566	    -66.38691522	    -28.08618103	      0.00000000	      0.00000000	     -9.59663755	     -5.66829721	      1.06989668	    -52.99573949	    -41.14480317	      0.00000000	      0.00000000	      0.00000000	      0.00000000	      0.00000000
      3.27000000	     76.70409840	     -2.28044101	     -2.35181345	      0.55421492	      0.97548610	     -0.30064485	     -5.61388256	    -16.23237122	    -11.73662250	    -66.71019717	    -28.08865881	      0.00000000	      0.00000000	     -9.26109693	     -5.73082310	      1.19813132	    -52.62227500	    -41.01377744	      0.00000000	      0.00000000	      0.00000000	      0.00000000	      0.00000000
